<svg xmlns="http://www.w3.org/2000/svg" width="500" height="500"><path d="M63 153.8l53.3 52-1.7-73H63z" fill="#333" fill-rule="evenodd"/><path d="M97 477.5l337-1.2 1-364-88-89H97z" fill="#f2f2f2" fill-rule="evenodd" stroke="#afafaf" stroke-width="5"/><path d="M431.5 110.6l-82-.6.6-83.8z" fill="#afafaf" fill-rule="evenodd" stroke="#afafaf" stroke-width="5"/><path fill="#394050" d="M63 69.8h225v84.4H63z"/><path d="M298 471c-66.8 17.6-135.2-22.2-153-89-17.5-66.6 22.2-135 89-152.7L263.8 342c-4.5 1-7.2 5.8-6 10.3 1.2 4.5 5.8 7.2 10.3 6L298 471zm-64-241.7c66.7-17.7 135 22 152.7 88.8 17.7 67-22 136-88.8 153l-30-112c4-1 7-5 6-10-1-4-6-7-11-6l-30-113z" fill="#999" fill-rule="evenodd"/><path d="M298 471c-66.8 17.6-135.2-22.2-153-89-17.5-66.6 22.2-135 89-152.7L263.8 342c-4.5 1-7.2 5.8-6 10.3 1.2 4.5 5.8 7.2 10.3 6L298 471zm-64-241.7c66.7-17.7 135 22 152.7 88.8 17.7 67-22 136-88.8 153l-30-112c4-1 7-5 6-10-1-4-6-7-11-6l-30-113z" fill-rule="evenodd" fill="#ccc"/><path d="M277.4 393.3c-24 6.3-48.3-8-54.6-31.8-6.3-23.8 8-48.2 31.7-54.6l9.3 35c-4.5 1-7.2 5-6 10 1.2 4 5.8 7 10.3 6l10 35zm-23-86.4c24-7 48.4 7 54.7 31 7 24-7 48-31 54l-9-35c5-1 8-6 6-10.8-1-4.6-5-7.3-10-6l-9-35z" fill-rule="evenodd" fill="#5d6a7b"/><path d="M275.5 386.3c-20 5.3-40.5-6.6-45.8-26.6-5.3-20 6.7-40.5 26.7-45.8l7.4 28c-4.5 1-7.2 5-6 10 1.2 4 5.8 7 10.3 6l8 28zm-19-72.4c20-6 40.4 6 45.7 26 5.3 20-6.7 40-26.7 46l-7.4-28c5-1 8-6 6-11-1-5-5-8-10-6l-7-28z" fill-rule="evenodd" fill="#999"/><path d="M270 365.3c-8.4 2.3-17-2.7-19.3-11.2-2.2-8 2.8-17 11.2-19l1 7c-5 1-7 6-6 11s6 7 10 6l2 7zm-8-30.4c8.3-3 17 2 19.2 11 2.2 8-2.8 17-11.2 19l-2-7c4.6-1 7.3-6 6-11-1-5-5.7-8-10.2-6l-2-7z" fill-rule="evenodd" fill="#5d6a7b"/><path d="M147.2 142V92.7" fill="none" stroke="#fff" stroke-width="9"/><path fill="#fff" d="M143 80h8.8v8.6h-9z"/><path d="M201 89s-9.4-4.3-18.2-4.4c-8.8 0-14.3 5.3-14.6 13-.3 7.4 4 13.5 19 15.3 15.3 1 14.4 15 12.5 19-2 4-10.7 9-19.7 8s-16.4-5-16.4-5" fill="none" stroke="#fff" stroke-width="10"/><path d="M239.4 138c-12 0-23.4-12-23.4-27.4 0-15.3 12-27.6 24-27.3 12.3.4 23 12 23 28.2.3 16.3-11.6 26.7-23.6 26.6z" fill="none" stroke="#fff" stroke-width="9"/></svg>
