<svg xmlns="http://www.w3.org/2000/svg" xmlns:xlink="http://www.w3.org/1999/xlink" width="48" height="48"><defs><linearGradient id="a"><stop offset="0" stop-color="#1d1e1e"/><stop offset="1" stop-color="#44484c"/></linearGradient><linearGradient id="b"><stop offset="0" stop-color="#197ff1"/><stop offset="1" stop-color="#21c6fb"/></linearGradient><linearGradient xlink:href="#a" id="h" x1="359.57" y1="547.8" x2="359.57" y2="512.8" gradientUnits="userSpaceOnUse" gradientTransform="translate(45.532 -5.745)"/><linearGradient xlink:href="#b" id="i" x1="409.57" y1="543.8" x2="409.57" y2="507.8" gradientUnits="userSpaceOnUse"/><linearGradient xlink:href="#c" id="k" gradientUnits="userSpaceOnUse" gradientTransform="translate(-568.45 -761.922) scale(1.4748)" x1="394.94" y1="536.97" x2="411.21" y2="536.97"/><linearGradient id="c"><stop offset="0" stop-color="#197cf1"/><stop offset="1" stop-color="#20bcfa"/></linearGradient><linearGradient gradientTransform="matrix(1.5 0 0 1.3928 -578.61 -717.202)" gradientUnits="userSpaceOnUse" y2="517.8" x2="403.57" y1="527.8" x1="403.57" id="l" xlink:href="#d"/><linearGradient id="d"><stop offset="0" stop-color="#c6cdd1"/><stop offset="1" stop-color="#f6f6f6"/></linearGradient><linearGradient gradientTransform="translate(-535.425 -717.202) scale(1.3928)" gradientUnits="userSpaceOnUse" y2="521.8" x2="400.57" y1="521.8" x1="398.57" id="m" xlink:href="#e"/><linearGradient id="e"><stop offset="0" stop-color="#faae2a"/><stop offset="1" stop-color="#ffc35a"/></linearGradient><linearGradient gradientTransform="translate(-525.675 -717.202) scale(1.3928)" y2="521.8" x2="400.57" y1="521.8" x1="398.57" gradientUnits="userSpaceOnUse" id="n" xlink:href="#e"/><linearGradient gradientTransform="translate(.225 1.227) scale(1.3928)" gradientUnits="userSpaceOnUse" y2="29" x2="26" y1="18" x1="15" id="o" xlink:href="#f"/><linearGradient id="f"><stop offset="0" stop-color="#292c2f"/><stop offset="1" stop-opacity="0"/></linearGradient><linearGradient gradientTransform="translate(-535.425 -717.202) scale(1.3928)" gradientUnits="userSpaceOnUse" y2="531.8" x2="403.57" y1="541.8" x1="403.57" id="p" xlink:href="#g"/><linearGradient id="g"><stop offset="0" stop-color="#7cbaf8"/><stop offset="1" stop-color="#f4fcff"/></linearGradient><linearGradient xlink:href="#b" id="j" gradientUnits="userSpaceOnUse" x1="90.72" y1="1035.16" x2="155.06" y2="818.42"/></defs><g transform="translate(-444.737 -582.852) scale(1.1566)"><circle cx="405.28" cy="524.8" r="20" fill="url(#h)" stroke="url(#i)" stroke-width="1.5" stroke-linecap="round" stroke-linejoin="round"/><g transform="matrix(.5888 -.2272 .2223 .6008 384.574 515.737)" fill="url(#j)"><path fill="url(#k)" d="M13.46 17.94h25.07V43H13.46z"/><path fill="url(#l)" d="M16.24 4h19.5v13.94h-19.5z"/><path fill="#23262c" d="M18.33 6.8h5.57v5.57h-5.57zm9.75 0h5.57v5.57h-5.57z"/><path fill="url(#m)" d="M19.73 6.8h2.8v5.57h-2.8z"/><path fill="url(#n)" d="M29.48 6.8h2.8v5.57h-2.8z"/><path fill="#0c69cf" d="M13.46 41.62h25.07v1.4H13.46z"/><path d="M26 23.5v12.42L25 37l6 6h7.53v-7.25l-.7.68V35l-3.14-3.13-5.6-5.58-1.1.1v.6z" opacity=".2" fill="url(#o)" fill-rule="evenodd"/><path d="M26 23.5l-.9 1.56h.63v7.9l-1.64-1.53c-.2-.13-.2-.3-.2-.48v-1.3c.3-.1.5-.38.5-.72 0-.43-.4-.77-.8-.77s-.8.34-.8.77c0 .34.2.62.5.73v1.27c0 .35.2.7.4.94l1.74 1.64c.1.2.2.3.2.5v.9c-.6.1-1.07.7-1.07 1.3 0 .7.6 1.3 1.3 1.3.74 0 1.32-.6 1.32-1.3 0-.6-.47-1.1-1.07-1.22V32.1c0-.2.1-.36.2-.5l1.73-1.63c.22-.23.4-.6.4-.94V27.9H29v-1.6h-1.5v1.54h.53V29c0 .2-.07.36-.18.5l-1.66 1.53v-5.97h.6L26 23.5z" fill="url(#p)"/></g></g></svg>
