<svg xmlns="http://www.w3.org/2000/svg" viewBox="0 0 48 48"><defs><clipPath id="a"/></defs><path d="M36.3 5C42.18 9.06 46 15.83 46 23.5 46 35.93 35.93 46 23.5 46 15.83 46 9.06 42.17 5 36.3c1.04 1.83 2.3 3.5 3.78 4.98 4.08 3.7 9.5 5.97 15.47 5.97 12.7 0 23-10.3 23-23 0-5.95-2.26-11.38-5.97-15.47C39.8 7.3 38.13 6.04 36.3 5zm4.98 3.78c3.85 4.1 6.22 9.64 6.22 15.72 0 12.7-10.3 23-23 23-6.08 0-11.6-2.36-15.72-6.22C12.94 45.42 18.66 48 25 48c12.7 0 23-10.3 23-23 0-6.33-2.58-12.06-6.72-16.22z" opacity=".05"/><path d="M41.28 8.78c3.7 4.1 5.97 9.52 5.97 15.47 0 12.7-10.3 23-23 23-5.95 0-11.38-2.26-15.47-5.97 4.1 3.85 9.64 6.22 15.72 6.22 12.7 0 23-10.3 23-23 0-6.08-2.36-11.6-6.22-15.72z" opacity=".1"/><path d="M31.25 2.38C39.87 5.53 46 13.78 46 23.5 46 35.94 35.93 46 23.5 46c-9.7 0-17.97-6.13-21.12-14.75a23 23 0 0 0 44.88-7 23 23 0 0 0-16-21.87z" opacity=".2"/><path d="M24.2.5c13.04 0 23.6 10.54 23.6 23.55 0 13-10.56 23.56-23.6 23.56C11.16 47.6.6 37.1.6 24.1.6 11.08 11.15.5 24.2.5z" opacity=".98" fill="#de434e"/><path d="M40.63 7.43c3.77 4.18 6.07 9.73 6.07 15.83 0 13-10.46 23.53-23.36 23.53-6.05 0-11.56-2.36-15.7-6.16 4.23 4.4 10.16 7.13 16.72 7.13 12.9 0 23.35-10.53 23.35-23.53 0-6.6-2.7-12.58-7.03-16.85z" opacity=".1"/><g clip-path="url(#a)" transform="translate(.56 -.354)"><path d="M36 34v-4H24v4m-9.25-4L12 27.1l6.18-5.1L12 16.9l2.75-2.9L24 22m-9.25 8" fill="#dcdcdc"/></g></svg>
