<svg xmlns="http://www.w3.org/2000/svg" xmlns:xlink="http://www.w3.org/1999/xlink" width="200" height="200"><defs><linearGradient id="a"><stop offset="0" stop-color="#f4fbfc"/><stop offset="1" stop-color="#d6d6d6"/></linearGradient><linearGradient xlink:href="#a" id="c" x1="102.3" y1="-.43" x2="102.3" y2="199.17" gradientUnits="userSpaceOnUse"/><linearGradient id="b"><stop offset="0" stop-color="#15c4fc"/><stop offset="1" stop-color="#1863ee"/></linearGradient><linearGradient xlink:href="#b" id="d" gradientUnits="userSpaceOnUse" x1="99.04" y1="-.5" x2="99.04" y2="199.84"/><linearGradient id="g" gradientUnits="userSpaceOnUse" gradientTransform="matrix(4.1388 0 0 4.725 .855 834.984)" y1="34" x2="0" y2="19"><stop stop-opacity=".06"/><stop offset="1" stop-opacity="0"/></linearGradient><linearGradient gradientTransform="matrix(.3763 0 0 .3746 -.08 .13)" id="e" gradientUnits="userSpaceOnUse" x1="64" y1="4.02" x2="64" y2="124.02"><stop offset="0" stop-color="#22E1FD"/><stop offset=".97" stop-color="#0B53B6"/></linearGradient><linearGradient gradientTransform="matrix(.3763 0 0 .3746 -.08 .13)" id="f" gradientUnits="userSpaceOnUse" x1="59.21" y1="4.19" x2="59.78" y2="123.57"><stop offset="0" stop-color="#22E1FD"/><stop offset=".97" stop-color="#0B53B6"/></linearGradient></defs><path d="M200 100a100 100 0 0 1-100 100A100 100 0 0 1 0 100 100 100 0 0 1 100 0a100 100 0 0 1 100 100z" color="#000" fill="url(#c)" overflow="visible"/><path d="M200 100a100 100 0 0 1-100 100A100 100 0 0 1 0 100 100 100 0 0 1 100 0a100 100 0 0 1 100 100z" transform="translate(8.98 8.98) scale(.9102)" color="#000" fill="url(#d)" overflow="visible"/><path d="M38.1 52.3h124.17v43.3H38.1m0-43.3" fill="#a17c5b"/><path d="M38.1 52.3l12.42 13-2.75 13-9.67 4.33M162.3 52.3l-12.4 13 2.74 13 9.67 4.33m0-30.32" fill="#c19a69"/><g transform="matrix(1.9092 0 0 1.9414 54.933 36.002)"><ellipse cx="24" cy="24.1" rx="22.58" ry="22.47" fill="url(#e)"/><ellipse cx="24" cy="24.1" rx="20.88" ry="20.79" fill="#fff"/><path d="M4.55 32.94C9.02 34.24 21.3 37.06 29 31.6c5.05-3.53 4.4-9.18 4.4-9.18-.07-4.3-2.82-8.58-2.82-8.58 10.62 9.2 4.33 19.44 4.33 19.44-3.2 6.33-10.2 10.1-15.8 11.46-6.4-1.5-11.8-5.92-14.5-11.8zm2.9-22.25c1.3 6.8 4.25 12.6 6.2 14.7 2.52 2.7 6.3 5.6 11.06 4.4 4.8-1.2 5.8-6.4 5.8-6.4 1.1-4.4-.4-9.7-.5-9.8-.1-.1-.8-.2-.8-.2.8 6.9-1.1 10-1.1 10-2.6 5.4-6.6 3.8-6.6 3.8-4.4-2.3-4.2-8.5-4.2-8.5-.1-4.4 1.6-11.6 5-15.8-5.9.5-11.2 3.3-14.7 7.7zm24.8-6.1c-2.57 2-6.93 6.4-6.93 6.4-6.47 6-5.2 11-5.2 11 1.02 5.3 4.26 1.7 4.26 1.7 3.38-3.5 3.12-10.4 3.12-10.4-1.36.2-2.22.9-2.22.9-.23 4.6-2.94 7.4-2.94 7.4-1.05 1.2-1.8 0-1.8 0-.57-.9.56-1.5.56-1.5 1.55-1.4 2.03-3.7 2-4.58-.04-.9.45-1.18.45-1.18 2.18-1.7 4.4-2.7 4.4-2.7 2.94-1.5 8.2-1.8 8.2-1.8 1.43.03 2.8-.04 3.88-.1-2.1-2.4-4.78-4.4-7.8-5.67z" fill="url(#f)"/></g><path d="M33.97 95.63h16.55V73.95L33.97 91.28m132.43 4.36h-16.55v-21.7l16.56 17.03m0 4.66" fill="#d0b092"/><path d="M33.97 82.63v80.14c1.33 1.36 2.73 2.65 4.13 3.92.86.7 1.7 1.5 2.6 2.3.55.4 1.1.9 1.67 1.3 1.08.8 2.12 1.7 3.23 2.5 1.95 1.4 4.03 2.8 6.08 4.1 1.3.8 2.7 1.5 4 2.3.88.4 1.7 1 2.6 1.4.73.4 1.46.7 2.2 1.1l1.16.5 2.2.9c1.4.6 2.82 1.2 4.27 1.7 1.4.5 2.8 1.1 4.2 1.5h.2c8.8 2.8 18.2 4.32 27.8 4.32s19.1-1.54 27.8-4.34h.2c1.4-.48 2.8-1 4.2-1.5 1.5-.56 2.9-1.16 4.3-1.77 1.2-.5 2.3-.96 3.4-1.5.8-.35 1.5-.7 2.2-1.1 2.2-1.16 4.5-2.5 6.6-3.8 1.3-.8 2.6-1.6 3.8-2.44.8-.5 1.6-1.08 2.36-1.6 2.6-1.9 5.1-4 7.5-6.2 1.4-1.3 2.8-2.6 4.13-3.97v-80z" fill="#c19a69"/><path d="M70.75 118.94c0 3.6-2.78 6.5-6.2 6.5-3.44 0-6.22-2.9-6.22-6.5 0-3.58 2.78-6.5 6.2-6.5 3.44 0 6.22 2.92 6.22 6.5m75.17.46c0 3.58-2.78 6.5-6.2 6.5-3.44 0-6.22-2.92-6.22-6.5 0-3.6 2.78-6.5 6.2-6.5 3.44 0 6.22 2.9 6.22 6.5m0 0" fill-opacity=".25"/><path d="M62.94 121.6c12.4 69.3 66.22 69.3 78.62 0 .87-5.8-2.95-5.92-4.13 0-8.27 63.15-62.08 62.82-70.35 0-.77-5.7-4.9-5.45-4.13 0m0 0" fill="#fff"/><path d="M33.97 943.66v51.97H166.4v-51.97m-132.43 0" fill="url(#g)" transform="translate(0 -852.362)"/><path d="M80.5 138.68l3.72-3.54c.44-.4.8-.8.8-.85 0-.1-4.67-3.5-4.9-3.5-.05-.1-.14.1-.2.2-.1.4-1.57 6.2-2.38 9.5-.18.7-.18.9-.02.9.05 0 1.4-1.3 3-2.8zm44.3 2.5c.85-1.2 1.33-3.77 1.13-6.07-.23-2.6-.9-4.4-2.2-5.9-.94-1.1-1.75-1.3-2.68-.8-1.44.9-2.8 1.8-3 2-.6.7-.57 1.8.12 3.3.7 1.5 1.44 2.3 3.1 3.5 1.74 1.2 2.44 2.1 2.82 3.7.1.5.2.7.4.7l.3-.3zm-37.4-10.8c3.27-6.2 7.44-13.88 10.03-18.48.56-1 1.03-1.86 1.03-1.9 0-.1-4.87-3.3-5-3.26-.12.04-4.47 7.82-7.56 13.54-.97 1.82-2.43 4.4-3.23 5.75l-1.72 2.9c-.15.25-.23.48-.2.52.23.23 5.14 3.57 5.2 3.54.06-.1.7-1.2 1.45-2.6zm31.76-2.2c1.26-.76 2.37-1.46 2.46-1.55.17-.16.16-.2-.3-1.04l-1.42-2.7c-.5-1-1-1.8-1.07-1.8-.2-.1-4.96 2.9-5 3.1-.02.1 2.48 4.8 2.76 5.1 0 .1.1.1.2.1l2.3-1.4zm9.5-4.96c.05-.07.06-1.5.05-3.2v-3.1l-5.3-.03c-4.7-.1-5.3-.1-5.3.1l1.7 3.2 1.7 3.1h4c2.6 0 3.4-.1 3.4-.2zm-16.98-.13c0-.1-.67-1.5-1.52-3.1l-1.54-3h-13.1L94 120c-.85 1.64-1.52 3-1.5 3.05.06.1 19.17.07 19.2-.03zm-28.13-.6l1.6-3c.72-1.3 1.3-2.4 1.3-2.5 0-.1-1.8-.1-5.5-.1h-5.5l-.02.6c-.02.3 0 1.7.03 3l.06 2.3h7.7zm32.4-1.2c2.23-1.3 2.2-1.3 2.2-1.5 0-.2-1.2-2.4-5.2-9.8l-7.65-14c-1.2-2.4-1.5-2.8-2.1-3.1-.4-.3-1.1-.3-1.5-.1-.42.2-1.9 1.1-2.3 1.4-.64.5-.9 1.5-.56 2.4.18.4.06.2 4.23 7.8 6.57 12 9.95 18.1 10.16 18.3.05 0 .3-.1.53-.2l2.27-1.4zM99.7 107.5c1.05-1.86 1.2-2.18 1.26-2.68.14-1.03-.38-1.72-2-2.7-.9-.55-1.05-.6-1.6-.64-.72-.05-1.08.12-1.6.73-.37.5-1.83 3.3-1.83 3.5 0 .1.9.8 2.4 1.7 1.33.9 2.44 1.6 2.48 1.6.1 0 .5-.6.9-1.4z" fill="#fff" fill-opacity=".85"/></svg>
