<svg xmlns="http://www.w3.org/2000/svg" id="svg2817" height="48" width="48" version="1"><path d="M4 36V8c0-1.1.9-2.12 2-2h16l4 4h16.1s1.9 0 1.9 2v24c0 1.1-.9 2-2 2H6c-1.1 0-2-.9-2-2z" id="path4159" fill="#63bae9"/><path d="M44 40V12c0-1.1-.9-2.12-2-2H26l-4 4H6c-2 0-2 1.92-2 1.92V40c0 1.1.9 2 2 2h36c1.1 0 2-.9 2-2z" id="rect3454" fill="#63bae9"/><path d="M6 6c-1.1 0-2 .9-2 2v1c0-1.1.9-2 2-2h16l4 4v-1l-4-4z" id="path4298" opacity=".1" fill="#fff"/><path d="M26 10l-4 4H6c-2 0-2 1.9-2 1.9v1S4 15 6 15h16l4-4h16c1.1-.12 2 .9 2 2v-1c0-1.1-.9-2.12-2-2H26z" id="path4161" opacity=".1" fill="#fff"/><path d="M25 10l-3 3H6c-2 0-2 1.9-2 1.9v1S4 14 6 14h16l3.5-3.5z" id="path4518" fill="#fff"/><path d="M4 39v1c0 1.1.9 2 2 2h36c1.1 0 2-.9 2-2v-1c0 1.1-.9 2-2 2H6c-1.1 0-2-.9-2-2z" id="path4494-3" opacity=".3"/><path d="M39.06 34.48l-2.56-2.56c.7-.98 1.12-2.18 1.12-3.48 0-3.3-2.7-6-6-6s-6 2.7-6 6 2.7 6 6 6c1.3 0 2.48-.4 3.46-1.1l2.57 2.56c.2.2.6.23.8.04l.7-.7c.2-.2.1-.56-.1-.76zm-12.44-6.04c0-2.76 2.24-5 5-5s5 2.24 5 5-2.24 5-5 5-5-2.24-5-5z" id="path36" fill="#fff"/></svg>
