<svg viewBox="0 0 48 48"><defs><linearGradient id="a" x1="1" x2="47" gradientUnits="userSpaceOnUse" gradientTransform="rotate(-90 24 24)"><stop stop-color="#e4e4e4"/><stop offset="1" stop-color="#eee"/></linearGradient><clipPath id="b"/><clipPath id="c"/></defs><path d="M36.3 5C42.18 9.06 46 15.83 46 23.5 46 35.93 35.93 46 23.5 46 15.83 46 9.06 42.17 5 36.3c1.04 1.83 2.3 3.5 3.78 4.98 4.08 3.7 9.5 5.97 15.47 5.97 12.7 0 23-10.3 23-23 0-5.95-2.26-11.38-5.97-15.47C39.8 7.3 38.13 6.04 36.3 5zm4.98 3.78c3.85 4.1 6.22 9.64 6.22 15.72 0 12.7-10.3 23-23 23-6.08 0-11.6-2.36-15.72-6.22C12.94 45.42 18.66 48 25 48c12.7 0 23-10.3 23-23 0-6.33-2.58-12.06-6.72-16.22z" opacity=".05"/><path d="M41.28 8.78c3.7 4.1 5.97 9.52 5.97 15.47 0 12.7-10.3 23-23 23-5.95 0-11.38-2.26-15.47-5.97 4.1 3.85 9.64 6.22 15.72 6.22 12.7 0 23-10.3 23-23 0-6.08-2.36-11.6-6.22-15.72z" opacity=".1"/><path d="M31.25 2.38C39.87 5.53 46 13.78 46 23.5 46 35.94 35.93 46 23.5 46c-9.7 0-17.97-6.13-21.12-14.75a23 23 0 0 0 44.88-7 23 23 0 0 0-16-21.87z" opacity=".2"/><path d="M24 1c12.7 0 23 10.3 23 23S36.7 47 24 47 1 36.7 1 24 11.3 1 24 1z" fill="url(#a)"/><g opacity=".1" clip-path="url(#b)"><path d="M25 10c-3.84 0-7.66 1.47-10.6 4.4-5.87 5.85-5.87 15.35 0 21.2 5.87 5.86 15.33 5.86 21.2 0 5.87-5.85 5.87-15.35 0-21.2C32.67 11.47 28.85 10 25 10m0 0"/><path d="M16 20h17v2H16m0-2"/><path d="M26 21c0 1.66-1.34 3-3 3s-3-1.34-3-3 1.34-3 3-3 3 1.34 3 3m8 0c0 1.66-1.34 3-3 3s-3-1.34-3-3 1.34-3 3-3 3 1.34 3 3m0 8c0 1.66-1.34 3-3 3s-3-1.34-3-3 1.34-3 3-3 3 1.34 3 3m0 0"/><path d="M31.73 31L21 20.26 22.26 19 33 29.73M31.73 31"/></g><g clip-path="url(#c)"><path d="M24 9c-3.84 0-7.66 1.47-10.6 4.4-5.87 5.85-5.87 15.35 0 21.2 5.87 5.86 15.33 5.86 21.2 0 5.87-5.85 5.87-15.35 0-21.2C31.67 10.47 27.85 9 24 9m0 0" fill="#d4201e"/><path d="M15 19h17v2H15m0-2" fill="#f9f9f9"/><path d="M25 20c0 1.66-1.34 3-3 3s-3-1.34-3-3 1.34-3 3-3 3 1.34 3 3m8 0c0 1.66-1.34 3-3 3s-3-1.34-3-3 1.34-3 3-3 3 1.34 3 3m0 8c0 1.66-1.34 3-3 3s-3-1.34-3-3 1.34-3 3-3 3 1.34 3 3m0 0" fill="#f9f9f9"/><path d="M30.73 30L20 19.26 21.26 18 32 28.73M30.73 30" fill="#f9f9f9"/></g><path d="M40.03 7.53C43.73 11.6 46 17.03 46 23c0 12.7-10.3 23-23 23-5.95 0-11.38-2.26-15.47-5.97C11.7 44.33 17.53 47 24 47c12.7 0 23-10.3 23-23 0-6.46-2.68-12.3-6.97-16.47z" opacity=".1"/></svg>
