<svg xmlns="http://www.w3.org/2000/svg" xmlns:xlink="http://www.w3.org/1999/xlink" width="200" height="200"><defs><linearGradient id="b"><stop offset="0" stop-color="#db6651"/><stop offset="1" stop-color="#d44d45"/></linearGradient><linearGradient id="a"><stop offset="0" stop-color="#f4fbfc"/><stop offset="1" stop-color="#d6d6d6"/></linearGradient><linearGradient xlink:href="#a" id="c" x1="102.3" y1="-.4" x2="102.3" y2="199.2" gradientUnits="userSpaceOnUse"/><linearGradient xlink:href="#b" id="d" x1="99" y1="-.5" x2="99" y2="199.8" gradientUnits="userSpaceOnUse"/><linearGradient xlink:href="#a" id="e" x1="300" y1="820" x2="300" y2="1084.7" gradientUnits="userSpaceOnUse"/><linearGradient xlink:href="#a" id="f" gradientUnits="userSpaceOnUse" x1="200" y1="952.4" x2="400" y2="952.4"/><linearGradient xlink:href="#a" id="g" gradientUnits="userSpaceOnUse" x1="200" y1="952.4" x2="400" y2="952.4"/><linearGradient xlink:href="#a" id="h" gradientUnits="userSpaceOnUse" x1="200" y1="952.4" x2="400" y2="952.4"/><linearGradient xlink:href="#a" id="i" gradientUnits="userSpaceOnUse" x1="200" y1="952.4" x2="400" y2="952.4"/><linearGradient xlink:href="#a" id="j" gradientUnits="userSpaceOnUse" x1="200" y1="952.4" x2="400" y2="952.4"/><linearGradient xlink:href="#a" id="k" gradientUnits="userSpaceOnUse" x1="200" y1="952.4" x2="400" y2="952.4"/></defs><path d="M200 100a100 100 0 0 1-100 100A100 100 0 0 1 0 100 100 100 0 0 1 100 0a100 100 0 0 1 100 100z" color="#000" fill="url(#c)" overflow="visible"/><path d="M200 100a100 100 0 0 1-100 100A100 100 0 0 1 0 100 100 100 0 0 1 100 0a100 100 0 0 1 100 100z" transform="translate(8.98 8.98) scale(.9102)" color="#000" fill="url(#d)" overflow="visible"/><g transform="translate(-105.882 -553.582) scale(.6863)" fill="url(#e)"><path transform="translate(0 852.362)" d="M300 0a100 100 0 0 0-100 100 100 100 0 0 0 100 100 100 100 0 0 0 100-100A100 100 0 0 0 300 0zm0 12.7a87.3 87.3 0 0 1 87.3 87.3 87.3 87.3 0 0 1-87.3 87.3 87.3 87.3 0 0 1-87.3-87.3A87.3 87.3 0 0 1 300 12.7z" fill="url(#f)"/><path transform="translate(0 852.362)" d="M300 38.8a61.2 61.2 0 0 0-61.2 61.2 61.2 61.2 0 0 0 61.2 61.2 61.2 61.2 0 0 0 61.2-61.2A61.2 61.2 0 0 0 300 38.8zm0 12a49 49 0 0 1 49 49.2 49 49 0 0 1-49 49 49 49 0 0 1-49-49 49 49 0 0 1 49-49z" fill="url(#g)"/><path d="M220.5 911.6l26.8 15 26.7-28.3-16.8-27.5s-31.4 14.8-36.7 40.8z" fill="url(#h)" fill-rule="evenodd"/><path d="M326.2 898.7l16-27.2L357 879l21.7 32.3-31.6 18.2-5-15.2z" fill="url(#i)" fill-rule="evenodd"/><path d="M352.7 978l31.4 18.5-15 23.3-27.4 11-17.8-28.3z" fill="url(#j)" fill-rule="evenodd"/><path d="M258.6 1030.7l15.2-24.7-26.7-27.5-27 15.7 7.6 19.4z" fill="url(#k)" fill-rule="evenodd"/></g></svg>
