<svg xmlns="http://www.w3.org/2000/svg" xmlns:xlink="http://www.w3.org/1999/xlink" id="svg2987" width="512" height="512" viewBox="0 0 512 512"><defs id="defs2991"><radialGradient r="2" fy="21.5" fx="3" cy="21.5" cx="3" gradientTransform="matrix(1 0 0 1.25 0 -5.38)" gradientUnits="userSpaceOnUse" id="radialGradient3084" xlink:href="#linearGradient4082"/><linearGradient id="linearGradient4082"><stop id="stop4084" offset="0" stop-color="#4d4d4d"/><stop id="stop4086" offset="1" stop-color="#333"/></linearGradient><radialGradient r="10" fy="30" fx="-14" cy="30" cx="-14" gradientUnits="userSpaceOnUse" id="radialGradient3095" xlink:href="#linearGradient3982"/><linearGradient id="linearGradient3982"><stop id="stop3984" offset="0" stop-opacity=".8"/><stop id="stop3986" offset="1" stop-color="#fff" stop-opacity=".1"/></linearGradient><radialGradient r="10" fy="30" fx="-14" cy="30" cx="-14" gradientUnits="userSpaceOnUse" id="radialGradient3079" xlink:href="#linearGradient3982"/><radialGradient r="2" fy="21.5" fx="3" cy="21.5" cx="3" gradientTransform="matrix(1 0 0 1.25 0 -5.38)" gradientUnits="userSpaceOnUse" id="radialGradient3081" xlink:href="#linearGradient4082"/><radialGradient r="2" fy="21.5" fx="3" cy="21.5" cx="3" gradientTransform="matrix(1 0 0 1.25 0 -5.38)" gradientUnits="userSpaceOnUse" id="radialGradient3084-0" xlink:href="#linearGradient4082"/><linearGradient y2="-212" x2="347.9" y1="-244" x1="315.9" gradientTransform="translate(-308 1255.65)" gradientUnits="userSpaceOnUse" id="linearGradient3012" xlink:href="#linearGradient3914"/><linearGradient id="linearGradient3914"><stop id="stop3916" offset="0" stop-color="#fff" stop-opacity=".1"/><stop id="stop3918" offset="1" stop-color="#177ed5" stop-opacity="0"/></linearGradient></defs><g transform="matrix(0 -.74 .74 0 -205.69 -359.39)" id="layer1"><circle r="202.5" cy="625.5" cx="-689.9" id="path3888" fill="#333"/><circle id="path3888-0" cx="-689.9" cy="625.5" r="84.4" fill="#4d4d4d"/><circle id="path3888-0-2" cx="-689.9" cy="625.5" r="61.9" fill="#1abc9c"/><circle id="path3926" cx="-689.9" cy="625.5" r="5.6" fill="#333"/><circle id="path3888-5-6" cx="-689.9" cy="625.5" r="201.8" fill="none" stroke="#4d4d4d" stroke-width="1.1"/><circle id="path3888-5-6-8-6" cx="-689.9" cy="625.5" r="190.6" fill="none" stroke="#4d4d4d" stroke-width="1.1"/><circle id="path3888-5-6-8-6-5" cx="-689.9" cy="625.5" r="184.9" fill="none" stroke="#4d4d4d" stroke-width="1.1"/><circle id="path3888-5-6-8-6-5-3" cx="-689.9" cy="625.5" r="179.3" fill="none" stroke="#4d4d4d" stroke-width="1.1"/><circle id="path3888-5-6-8-6-5-3-7" cx="-689.9" cy="625.5" r="173.7" fill="none" stroke="#4d4d4d" stroke-width="1.1"/><circle id="path3888-5-6-8-6-5-3-7-0" cx="-689.9" cy="625.5" r="168.1" fill="none" stroke="#4d4d4d" stroke-width="1.1"/><circle id="path3888-5-6-8-6-5-3-7-0-7" cx="-689.9" cy="625.5" r="162.4" fill="none" stroke="#4d4d4d" stroke-width="5.6"/><circle id="path3888-5-6-8-6-5-3-7-0-7-0" cx="-689.9" cy="625.5" r="156.8" fill="none" stroke="#4d4d4d" stroke-width="1.1"/><circle id="path3888-5-6-8-6-5-3-7-0-7-0-1" cx="-689.9" cy="625.5" r="151.2" fill="none" stroke="#4d4d4d" stroke-width="1.1"/><circle id="path3888-5-6-8-6-5-3-7-0-7-0-1-0" cx="-689.9" cy="625.5" r="145.6" fill="none" stroke="#4d4d4d" stroke-width="1.1"/><circle id="path3888-5-6-8-6-5-3-7-0-7-0-1-0-2" cx="-689.9" cy="625.5" r="139.9" fill="none" stroke="#4d4d4d" stroke-width="1.1"/><circle id="path3888-5-6-8-6-5-3-7-0-7-0-1-0-2-8" cx="-689.9" cy="625.5" r="134.3" fill="none" stroke="#4d4d4d" stroke-width="1.1"/><circle id="path3888-5-6-8-6-5-3-7-0-7-0-1-0-2-8-8" cx="-689.9" cy="625.5" r="128.7" fill="none" stroke="#4d4d4d" stroke-width="1.1"/><circle id="path3888-5-6-8-6-5-3-7-0-7-0-1-0-2-8-8-9" cx="-689.9" cy="625.5" r="123.1" fill="none" stroke="#4d4d4d" stroke-width="5.6"/><circle id="path3888-5-6-8-6-5-3-7-0-7-0-1-0-2-8-8-9-7" cx="-689.9" cy="625.5" r="117.4" fill="none" stroke="#4d4d4d" stroke-width="1.1"/><circle id="path3888-5-6-8-6-5-3-7-0-7-0-1-0-2-8-8-9-7-6" cx="-689.9" cy="625.5" r="111.8" fill="none" stroke="#4d4d4d" stroke-width="1.1"/><circle id="path3888-5-6-8-6-5-3-7-0-7-0-1-0-2-8-8-9-7-6-7" cx="-689.9" cy="625.5" r="106.2" fill="none" stroke="#4d4d4d" stroke-width="1.1"/><circle id="path3888-5-6-8-6-5-3-7-0-7-0-1-0-2-8-8-9-7-6-6" cx="-689.9" cy="625.5" r="100.6" fill="none" stroke="#4d4d4d" stroke-width="1.1"/><circle id="path3888-5-6-8-6-5-3-7-0-7-0-1-0-2-8-8-9-7-6-6-3" cx="-689.9" cy="625.5" r="94.9" fill="none" stroke="#4d4d4d" stroke-width="1.1"/><circle id="path3888-5-6-8-6-5-3-7-0-7-0-1-0-2-8-8-9-7-6-6-3-4" cx="-689.9" cy="625.5" r="89.3" fill="none" stroke="#4d4d4d" stroke-width="1.1"/><circle r="199.7" cy="625.5" cx="-689.9" id="path3888-5" fill="none" stroke="#4d4d4d" stroke-width="5.6"/></g><path d="M116.6 102h282.2c-6-3.3-12.7-5-20-5H136.6c-7.2 0-14 1.7-20 5z" id="rect3009-6" opacity=".3" fill-rule="evenodd" stroke="#000" stroke-width="0"/><rect id="rect3009" width="391.1" height="391.1" x="61.4" y="101.2" ry="49.8" fill="#92dc00" fill-rule="evenodd" stroke="#000" stroke-width="0"/><path d="M260.2 199l-.5 61-.6 61.3-4.3-1.4c-1.7-.8-4.8-1.5-8-2a30.7 30 0 0 0-7.2-1 30.7 30 0 0 0-30.7 30.2 30.7 30 0 0 0 30.7 30 30.7 30 0 0 0 2.3 0c7.7-.4 19.5-5 23.3-13.5a30.7 30 0 0 0 5-16.5 30.7 30 0 0 0 0-1.8l1.4-45c0-30.3.8-54.5 1.8-55 2.5-1.6 17.7 15.7 23 26 3 5.7 4.6 13.7 5.5 27.2 1 18 1.4 18.7 3.8 13 4.6-10.7 6-23.5 4-35.8-2.4-15-7-24-19-38-10.4-12.2-14.6-19.3-18-31-2-6.5-3.4-8-7.3-8h-4.8z" id="path3007-4" opacity=".3" fill-rule="evenodd" stroke="#fff" stroke-width="0" stroke-linecap="round"/><path d="M254.2 193l-.5 61-.6 61.3-4.3-1.4c-1.7-.8-4.8-1.5-8-2a30.7 30 0 0 0-7.2-1 30.7 30 0 0 0-30.7 30.2 30.7 30 0 0 0 30.7 30 30.7 30 0 0 0 2.3 0c7.7-.4 19.5-5 23.3-13.5a30.7 30 0 0 0 5-16.5 30.7 30 0 0 0 0-1.8l1.4-45c0-30.3.8-54.5 1.8-55 2.5-1.6 17.7 15.7 23 26 3 5.7 4.6 13.7 5.5 27.2 1 18 1.4 18.7 3.8 13 4.6-10.7 6-23.5 4-35.8-2.4-15-7-24-19-38-10.4-12.2-14.6-19.3-18-31-2-6.5-3.4-8-7.3-8h-4.8z" id="path3007" fill="#fff" fill-rule="evenodd" stroke="#fff" stroke-width="0" stroke-linecap="round"/><path d="M61.4 431.3v11c0 27.7 22.2 50 49.8 50h291.4c27.6 0 50-22.3 50-50v-11c0 27.6-22.4 49.8-50 49.8H111.2c-27.6 0-49.8-22-49.8-49.6z" id="rect3009-1" opacity=".3" fill-rule="evenodd" stroke="#000" stroke-width="0"/></svg>
