<svg xmlns="http://www.w3.org/2000/svg" width="80" height="40" viewBox="0 0 80 40"><g stroke-width="1.07"><g fill="navy"><path style="line-height:8.1823597px;-inkscape-font-specification:'Unispace, Bold';font-variant-ligatures:normal;font-variant-caps:normal;font-variant-numeric:normal;font-feature-settings:normal;text-align:center" d="M17.13 4.93c-.22 0-.4.2-.4.48v3.15h-4.57c-2.5-.17-4.48 1.9-4.45 4.86-.03 1.6 1 4.86 4.47 4.86h5.27c1.12 0 1.9-.74 1.9-1.66V5.4c0-.3-.14-.47-.48-.47zm39.94 0c-.24 0-.43.2-.43.46V7c0 .27.2.47.43.47h1.82c.23 0 .42-.2.42-.46V5.4c0-.26-.2-.47-.43-.47zm-.02 3.44c-.24 0-.43.2-.43.46v8.97c0 .25.2.45.44.45h1.86c.24 0 .43-.2.43-.45V8.82c0-.25-.2-.45-.44-.45zm-34.36.07c-1.78 0-2.85 1.27-2.85 3.34v3.36c0 .6.06 1.1.16 1.5.13.4.3.73.53 1 .23.23.52.4.88.52.36.1.8.16 1.3.16h8.26c.25 0 .55-.22.55-.58v-1.02c0-.34-.3-.65-.65-.65H23.9c-1.32.1-1.46-.7-1.36-1.43h6.4c2.05 0 2.83-.67 2.83-3.15 0-2.27-.95-3.06-2.82-3.06zm12.37 0c-1.76 0-2.83 1.26-2.83 3.33v3.36c0 .6.05 1.1.16 1.5.1.4.3.73.5 1 .24.23.54.4.9.52.35.1.78.16 1.28.16h8.26c.26 0 .55-.2.55-.57V16.7c0-.33-.3-.64-.66-.64h-6.96c-1.3.1-1.45-.7-1.36-1.43h6.43c2.03 0 2.8-.78 2.8-3.16 0-2.25-.94-3.04-2.8-3.04zm11.56 0c-.78 0-2.02.7-2.02 2.2l.02 10.5c0 .43.03.77.65.77h1.47c.37 0 .53-.14.53-.73v-2.85h3.66c4.83.13 5.2-3.5 5.2-4.95 0-3.34-2.2-4.95-4.8-4.94zm13.74.07c-.4 0-.43.14-.43.5v8.44c0 .54.12.77.65.77h1.5c.5 0 .5-.26.5-.68v-6.87h3.05c.8 0 1.6.47 1.62 2v4.78c0 .54.16.78.76.78h1.24c.55 0 .62-.26.62-.74V11.5c0-.6-.06-1.07-.17-1.45-.1-.4-.27-.7-.5-.93-.2-.23-.5-.4-.87-.48-.36-.1-1.77-.14-2.3-.14zm-45.62 2.14c1.03 0 2 .04 2 .04v5.4h-2.88c-.4 0-.7-.02-.96-.07-2.63 0-2.72-2-2.58-2.8 0-2 1.9-2.53 2.7-2.52.47-.03 1.1-.04 1.73-.04zm32.5 0h3.5c1.83-.02 2.7 1.36 2.73 2.63 0 1.87-1.02 2.78-3.4 2.78h-2.82zm-18.72.03c.98.02 1.1 1.46.36 1.74-.13.04-.3.05-.47.05h-5.9v-.7c-.05-.66.4-1.1 1.05-1.08H28.53zm12.38 0c1 0 1.13 1.45.38 1.72-.13.03-.28.04-.47.04h-5.88v-.7c-.06-.66.38-1.1 1.05-1.08H40.9z" font-weight="bold" font-size="14.73" font-family="Unispace" letter-spacing="0" word-spacing="0" text-anchor="middle"/><path style="-inkscape-font-specification:'Unispace, Bold';font-variant-ligatures:normal;font-variant-caps:normal;font-variant-numeric:normal;font-feature-settings:normal;text-align:center" d="M22.24 19.56c-.7 0-1.13.5-1.13 1.34v1.35c0 .24.03.44.07.6.05.16.12.3.2.4.1.1.22.16.36.2.14.05.32.07.52.07h3.3c.1 0 .22-.1.22-.24v-.4c0-.14-.12-.26-.26-.26h-2.77c-.53.04-.58-.28-.55-.57h2.57c.82 0 1.13-.27 1.13-1.27 0-.9-.38-1.22-1.13-1.22zm4.4 0c-.16 0-.17.05-.17.2v3.37c0 .22.05.32.26.32h.6c.2 0 .2-.1.2-.28v-2.75h1.22c.33 0 .65.2.65.8v1.9c0 .23.07.32.3.32h.5c.22 0 .25-.1.25-.3v-2.38c0-.24-.02-.43-.06-.58-.05-.16-.12-.28-.2-.37-.1-.1-.22-.15-.36-.2-.15-.02-.7-.04-.92-.04zm-4.04.9h1.94c.43-.04.5.58.2.7h-2.56v-.27c-.02-.28.16-.46.42-.44z" font-weight="bold" font-size="14.73" font-family="Unispace" letter-spacing="0" word-spacing="0" text-anchor="middle" stroke-width=".25"/><path style="-inkscape-font-specification:'Unispace, Bold';font-variant-ligatures:normal;font-variant-caps:normal;font-variant-numeric:normal;font-feature-settings:normal;text-align:center" d="M50.38 21.8c-.16 0-.3.18-.3.4v.92c0 .23.14.4.3.4h6.55c.16 0 .3-.18.3-.4v-.92c0-.22-.14-.4-.3-.4zm17.5.03c-.22 0-.4.18-.4.4l.02 11.02c0 .22.17.4.38.4h1.65c.2 0 .38-.18.38-.4V22.23c0-.22-.17-.4-.38-.4zm-27.96 3c-.23 0-.5.18-.5.5v.9c0 .3.28.57.6.57h5.3c1.16-.07 1.28.62 1.2 1.28h-5.7c-1.8 0-2.5.6-2.5 2.8 0 2 .85 2.7 2.5 2.7h5.57c1.55 0 2.5-1.13 2.5-2.97v-2.97c0-.53-.05-.97-.14-1.33-.1-.36-.25-.65-.46-.87-.2-.22-.46-.37-.78-.47-.3-.1-.7-.15-1.14-.15zm22.92.02c-2.27 0-4.1 1.94-4.1 4.34 0 2.38 1.84 4.3 4.1 4.3 2.28 0 4.12-1.93 4.1-4.32 0-2.4-1.83-4.33-4.1-4.33zm-41.74.07c-.7 0-1.26.23-1.68.67-.42.43-.63 1.02-.63 1.76v.57c0 .73.2 1.32.62 1.77.42.44.98.72 1.68.72h3.08c.34.02.48.2.54.32.06.14.12.5 0 .68-.1.18-.24.27-.53.27-.53 0-1.4.02-1.97 0-.58-.02-1.1.03-1.6 0-.3-.02-.9.02-1.2 0-.3 0-.65.22-.62.67v.7c.02.45.28.62.64.63h1.45c.56.04 1.2-.04 1.88 0 .7.03 1.36 0 2.02 0 .7 0 1.26-.24 1.68-.68.42-.45.63-1.04.63-1.77v-.65c0-.74-.2-1.33-.62-1.77-.43-.44-1-.37-1.68-.37h-3.03c-.28 0-.5-.16-.6-.38-.08-.22-.1-.6 0-.8.1-.22.3-.38.6-.38h4.68c.42 0 .66-.1.65-.45v-.93c.02-.4-.4-.6-.65-.6zm-10.87.02c-1.56 0-2.5 1.12-2.5 2.96v2.98c0 .53.04.97.13 1.33.1.37.26.66.46.88.2.22.46.37.78.47.3.1.7.15 1.14.15h7.33c.23 0 .5-.2.5-.52v-.9c0-.3-.28-.58-.6-.58h-6.16c-1.16.08-1.28-.6-1.2-1.27h5.7c1.8 0 2.5-.6 2.5-2.8 0-2-.85-2.7-2.5-2.7zm39.55-.04c-.35 0-.4.1-.4.44l.02 7.48c0 .48.1.7.57.7h1.34c.45 0 .46-.25.46-.62v-6.1h2.7c.72 0 1.43.42 1.43 1.77v4.25c0 .48.14.7.68.68h1.1c.48 0 .55-.23.55-.65v-5.3c0-.52-.06-.95-.15-1.3-.1-.34-.24-.6-.44-.8-.2-.2-.45-.35-.78-.43-.3-.08-1.57-.12-2.03-.12zm-20.38.04c-.7 0-1.8.63-1.8 1.96v9.33c0 .37.04.67.58.67h1.3c.34 0 .48-.13.48-.65V33.7h3.24c4.3.13 4.63-3.1 4.63-4.38 0-2.95-1.97-4.38-4.27-4.38zm33.44.24c.5 0 1 .1 1.44.3l-.44.4L62.8 27c-.34.4-.57.82-.66 1.28-.03.14-.04.28-.03.42.03.26.1.42.2.58.15.17.3.12.45.02.25-.17.44-.47.57-.9.15-.48.16-.9.17-1.25-.18 0-.32.1-.44.2-.03.5-.2 1-.47 1.34l-.16.15c-.03.02-.06.04-.1.02-.06-.03-.1-.05-.12-.1 0-.03-.03-.1 0-.14.38-.32.43-.65.48-.95 0-.08.02-.2.1-.24.93-.73 1.7-.84 2.7-.83h.2c.6.72.94 1.64.94 2.6 0 2.22-1.7 4-3.8 4-.22 0-.45 0-.67-.06.34-.12.66-.23 1.44-.7.8-.57 1.4-1.48 1.53-2.4.2-1.52-.72-2.42-1.1-2.8.2.4.38.8.47 1.25.14.8 0 1.53-.63 2.1-.6.47-1.2.62-1.8.68-.72.02-1.46.03-2.65-.33-.24-.53-.37-1.12-.37-1.7 0-.9.3-1.75.8-2.44.2.8.34 1.3.63 1.9.3.66.76 1.23 1.5 1.58.5.2 1.22.2 1.7-.4.35-.45.4-.94.4-1.44.03-.4-.05-.83-.14-1.23-.04-.05-.13-.06-.18-.05.05.65.08 1.4-.23 2.03-.14.23-.23.4-.42.5-.27.2-.64.24-.97-.06-.28-.3-.47-.87-.5-1.35-.02-.63.1-1.27.3-1.87.12-.4.3-.82.53-1.17l.38-.02zm-32.9 1.7h3.12c1.6 0 2.38 1.23 2.4 2.36 0 1.66-.9 2.46-3 2.46h-2.5zm-18.9.03h4.3c.94-.06 1.1 1.3.4 1.55-.1.03-.25.04-.4.04H10.1v-.63c-.05-.6.34-1 .93-.96zm30.25 3.12h5.22v.62c.05.6-.34 1-.93.96h-4.3c-.96.07-1.1-1.28-.42-1.54.1-.03.25-.04.4-.04zM43.9 3.7c-.04 0-.1.04-.1.1v.8h-1.14c-.63-.04-1.13.48-1.12 1.23 0 .4.25 1.22 1.12 1.22H44c.27 0 .47-.2.47-.42V3.8c0-.07-.04-.1-.13-.1zm6.48-.02c-.05 0-.1.05-.1.12v.8h-1.15C48.5 4.55 48 5.07 48 5.82c0 .4.26 1.22 1.13 1.22h1.33c.28 0 .48-.2.48-.42v-2.8c0-.1-.03-.14-.12-.14zm-9.86 0c-.06 0-.1.07-.1.13v.42c0 .06.04.1.1.1h.46c.06 0 .1-.04.1-.1v-.4c0-.07-.04-.13-.1-.13zm0 .88c-.06 0-.1.05-.1.1v2.27c0 .07.04.12.1.12H41c.05 0 .1-.05.1-.12V4.67c0-.06-.05-.1-.1-.1zm-10 .05c-.1 0-.1.05-.1.14v2.12c0 .14.03.2.16.2h.38c.13 0 .13-.07.13-.18V5.15h.4c.2 0 .38.1.42.4v1.3c0 .15.03.2.16.2H32.46c.12 0 .13-.06.13-.17V5.15h.4c.22 0 .42.12.42.5v1.2c0 .15.04.2.2.2h.3c.15 0 .16-.06.16-.18v-1.5c0-.15 0-.27-.04-.37-.02-.1-.07-.18-.12-.23-.06-.06-.13-.1-.22-.13-.1-.02-.45-.03-.58-.03h-1.1c-.03 0-.05 0-.06.02h-.34zm4.16 0c-.14 0-.16.08-.16.2v1.5c0 .15.02.27.04.36.03.1.07.18.13.24.04.06.12.1.2.12.1.02.45.03.58.03h1.44c.1 0 .1-.03.1-.12V4.8c0-.13-.02-.2-.16-.2h-.38c-.12 0-.12.08-.12.18V6.5h-.77c-.22 0-.42-.1-.42-.5V4.8c0-.13-.04-.2-.2-.2zm2.9 0c-.1 0-.1.04-.1.13v2.12c0 .14.02.2.15.2H38c.14 0 .14-.07.14-.17V5.15h.76c.2 0 .4.1.4.5v1.2c0 .14.05.2.2.2h.32c.14 0 .15-.07.15-.2v-1.5c0-.14 0-.26-.04-.36-.02-.1-.06-.18-.12-.24-.05-.06-.12-.1-.2-.12-.1-.02-.46-.03-.6-.03zm-9.77.02c-.27 0-.5.26-.5.58v1.27c0 .33.24.6.52.6h1.65c.28 0 .5-.27.5-.6V5.2c0-.32-.22-.6-.5-.6zm-2.9 0c-.1 0-.2.02-.3.05-.07.02-.13.07-.18.13-.06.06-.1.14-.12.24-.02.1-.03.22-.03.37v.87c0 .15 0 .27.03.37.03.1.07.18.12.25.05.04.1.1.2.12.07.02.17.04.28.04h1.85c.05 0 .12-.06.12-.15v-.24c0-.08-.07-.16-.15-.16h-1.55c-.3.02-.32-.16-.3-.34v-.64c-.02-.18 0-.36.3-.34h1.55c.08 0 .15-.08.15-.16v-.25c0-.1-.07-.15-.13-.15zm20.4 0c-.05 0-.12.05-.12.13v.23c0 .07.07.14.15.14h1.34c.3-.02.32.3.3.47h-1.43c-.46 0-.63.2-.63.76 0 .5.22.68.64.68h1.4c.4 0 .63-.28.63-.74v-.75c0-.14 0-.47-.04-.56-.02-.1-.06-.17-.1-.23-.06-.05-.13-.1-.2-.12-.1-.02-.18-.03-.3-.03zm-2 .5c.27 0 .5.02.5.02V6.5h-.7c-.1 0-.2 0-.25-.02-.67 0-.7-.5-.65-.7 0-.5.47-.65.67-.64h.44zm6.48 0h.5V6.5h-.72c-.1 0-.18 0-.24-.03-.66 0-.7-.5-.65-.7 0-.5.48-.64.67-.64h.44zm-21.65.04h1.03c.13 0 .24.12.24.28v.8c0 .15-.1.28-.24.28h-1.03c-.14 0-.25-.13-.25-.28v-.8c0-.16.1-.28.25-.28zm17.52.9h1.32v.24c0 .15-.08.25-.23.24h-1.1c-.23.02-.26-.4-.1-.46h.1z" font-weight="bold" font-size="14.73" font-family="Unispace" letter-spacing="0" word-spacing="0" text-anchor="middle" stroke-width=".11"/></g><g fill="#fff"><path d="M17.13 4.5c-.22 0-.4.2-.4.5v3.13h-4.57c-2.5-.17-4.48 1.9-4.45 4.86-.03 1.6 1 4.84 4.47 4.84h5.27c1.12 0 1.9-.74 1.9-1.66V4.98c0-.3-.14-.47-.48-.47zm39.94.02c-.24 0-.43.2-.43.45V6.6c0 .25.2.45.43.45h1.82c.23 0 .42-.2.42-.46V4.96c0-.25-.2-.45-.43-.45zm-.02 3.43c-.24 0-.43.2-.43.46v8.98c0 .25.2.46.44.46h1.86c.24 0 .43-.2.43-.46V8.4c0-.25-.2-.45-.44-.45zm-34.36.08c-1.78 0-2.85 1.26-2.85 3.34v3.36c0 .6.06 1.1.16 1.5.13.4.3.73.53.98.23.25.52.43.88.54.36.1.8.16 1.3.16h8.26c.25 0 .55-.22.55-.58V16.3c0-.34-.3-.64-.65-.64H23.9c-1.32.1-1.46-.7-1.36-1.44h6.4c2.05 0 2.83-.66 2.83-3.15 0-2.25-.95-3.05-2.82-3.05zm12.37 0c-1.76 0-2.83 1.25-2.83 3.33v3.36c0 .6.05 1.1.16 1.5.1.4.28.73.5.98.24.24.54.42.9.53.35.1.78.16 1.28.16h8.26c.26 0 .55-.23.55-.6v-1c0-.35-.3-.65-.66-.65h-6.96c-1.3.1-1.45-.7-1.36-1.44h6.43c2.03 0 2.8-.76 2.8-3.14 0-2.25-.94-3.05-2.8-3.05zM46.63 8c-.78.02-2.02.7-2.02 2.22l.02 10.5c0 .43.03.77.65.77h1.47c.37 0 .53-.15.53-.74V17.9h3.66c4.83.13 5.2-3.5 5.2-4.95 0-3.33-2.2-4.94-4.8-4.94zm13.74.1c-.4 0-.43.12-.43.48v8.44c0 .54.12.78.65.78h1.5c.5 0 .5-.28.5-.7v-6.86h3.05c.8 0 1.6.47 1.6 2l.02 4.77c0 .56.16.8.76.8h1.24c.55 0 .62-.28.62-.75v-5.97c0-.58-.06-1.07-.17-1.45-.1-.4-.27-.7-.5-.92-.2-.23-.5-.4-.87-.48-.36-.1-1.77-.13-2.3-.13zM14.75 10.2c1.03 0 2 .04 2 .04v5.4h-2.88c-.4 0-.7-.02-.96-.07-2.63-.03-2.72-2.03-2.58-2.83 0-1.98 1.9-2.52 2.7-2.5.47-.04 1.1-.05 1.73-.05zm32.5 0h3.5c1.83 0 2.7 1.37 2.73 2.64 0 1.86-1.02 2.77-3.4 2.77h-2.82zm-18.72.03c.98.02 1.1 1.46.36 1.74l-.47.04h-5.9v-.7c-.05-.67.4-1.12 1.05-1.08H28.53zm12.38 0c1 0 1.13 1.45.38 1.73-.13.03-.28.04-.47.04h-5.88v-.7c-.06-.66.38-1.1 1.05-1.07H40.9z" style="line-height:8.1823597px;-inkscape-font-specification:'Unispace, Bold';font-variant-ligatures:normal;font-variant-caps:normal;font-variant-numeric:normal;font-feature-settings:normal;text-align:center" font-weight="bold" font-size="14.73" font-family="Unispace" letter-spacing="0" word-spacing="0" text-anchor="middle"/><path d="M22.24 19.15c-.7 0-1.13.5-1.13 1.33v1.35c0 .24.03.44.07.6.05.16.12.3.2.4.1.1.22.16.36.2.14.05.32.07.52.07h3.3c.1 0 .22-.1.22-.23v-.4c0-.14-.12-.27-.26-.27h-2.77c-.53.04-.58-.28-.55-.57h2.57c.82 0 1.13-.27 1.13-1.26 0-.9-.38-1.23-1.13-1.22zm4.4 0c-.16 0-.17.05-.17.2v3.37c0 .22.04.3.26.3h.6c.2 0 .2-.1.2-.27V20h1.22c.33 0 .65.2.65.8v1.92c0 .2.07.3.3.3h.5c.22 0 .25-.1.25-.3v-2.38c0-.23-.02-.43-.06-.58-.05-.16-.12-.28-.2-.37-.1-.1-.22-.17-.36-.2-.15-.04-.7-.06-.92-.06zm-4.04.9h1.94c.43-.04.5.57.2.68-.06.02-.12.02-.2.02h-2.36v-.28c-.02-.26.16-.44.42-.43z" style="-inkscape-font-specification:'Unispace, Bold';font-variant-ligatures:normal;font-variant-caps:normal;font-variant-numeric:normal;font-feature-settings:normal;text-align:center" font-weight="bold" font-size="14.73" font-family="Unispace" letter-spacing="0" word-spacing="0" text-anchor="middle" stroke-width=".25"/><path d="M50.38 21.38c-.16 0-.3.2-.3.4v.93c0 .23.14.4.3.4h6.55c.16 0 .3-.17.3-.4v-.9c0-.24-.14-.42-.3-.42zm17.5.03c-.22 0-.4.2-.4.42l.02 11c0 .23.17.4.38.4h1.65c.2 0 .38-.17.38-.4v-11c0-.23-.17-.4-.38-.4zm-27.96 3c-.23 0-.5.2-.5.5v.92c0 .3.28.57.6.57l5.3-.02c1.16-.07 1.28.63 1.2 1.28h-5.7c-1.8 0-2.5.6-2.5 2.8 0 2 .85 2.7 2.5 2.7h5.57c1.55 0 2.5-1.13 2.5-2.97v-3c0-.52-.05-.96-.14-1.32-.1-.35-.25-.65-.46-.87-.2-.2-.46-.36-.78-.46-.3-.1-.7-.15-1.14-.15zm22.92.04c-2.27 0-4.1 1.94-4.1 4.33 0 2.4 1.84 4.33 4.1 4.32 2.28 0 4.1-1.95 4.1-4.34 0-2.4-1.83-4.33-4.1-4.32zm-41.74.07c-.7 0-1.26.23-1.68.67-.42.45-.63 1.04-.63 1.77v.57c0 .75.2 1.34.62 1.78.42.44.98.73 1.68.72h3.08c.34.02.48.2.54.33.06.13.12.48 0 .67-.1.18-.24.27-.53.28-.53 0-1.4.02-1.97 0-.58-.02-1.1.04-1.6 0-.3-.02-.9.02-1.2 0-.3 0-.66.22-.62.67v.72c.02.43.28.6.64.6h1.45c.56.05 1.2-.02 1.88 0 .7.04 1.36 0 2.02 0 .7 0 1.26-.22 1.68-.67.42-.44.63-1.03.63-1.77v-.65c0-.73-.2-1.32-.62-1.77-.43-.43-1-.36-1.68-.36h-3.03c-.28 0-.5-.16-.6-.38-.08-.2-.1-.6 0-.8.1-.2.3-.37.6-.37l4.67-.02c.43.02.67-.1.66-.45v-.93c.02-.4-.4-.6-.65-.6zm-10.87.02c-1.56 0-2.5 1.12-2.5 2.96v2.98c0 .53.04.97.13 1.33.1.35.26.64.46.87.2.2.46.37.78.46.3.1.7.15 1.14.15h7.33c.23 0 .5-.2.5-.52v-.9c0-.3-.28-.57-.6-.57h-6.16c-1.16.07-1.28-.63-1.2-1.28h5.7c1.8 0 2.5-.6 2.5-2.8 0-2-.85-2.7-2.5-2.7zm39.55-.04c-.35 0-.4.12-.4.44l.02 7.48c0 .5.1.7.57.7h1.34c.45 0 .46-.25.46-.62v-6.1h2.7c.72 0 1.43.42 1.43 1.77v4.25c0 .48.14.7.68.7h1.1c.48 0 .55-.25.55-.67v-5.3c0-.5-.06-.94-.15-1.28-.1-.35-.24-.63-.44-.82-.2-.2-.45-.35-.78-.43-.3-.08-1.57-.12-2.03-.12zm-20.38.05c-.7 0-1.8.62-1.8 1.95v9.33c0 .38.03.68.58.68h1.3c.34 0 .48-.12.48-.65V33.3h3.24c4.3.12 4.63-3.1 4.63-4.4 0-2.95-1.97-4.38-4.27-4.38zm33.44.24c.5 0 1 .1 1.44.3l-.44.4s-.7.72-1.04 1.1c-.34.38-.57.8-.66 1.27-.03.14-.04.28-.03.42.03.26.1.42.2.6.15.15.3.1.45 0 .25-.17.44-.46.57-.88.15-.5.16-.92.17-1.27-.18 0-.32.1-.44.2-.03.52-.2 1-.47 1.35l-.16.15c-.03.02-.06.04-.1.03-.06-.03-.1-.06-.12-.1 0-.04-.03-.1 0-.14.38-.33.43-.66.48-.97 0-.08.02-.2.1-.24.93-.75 1.7-.85 2.7-.85h.2c.6.73.94 1.64.94 2.6 0 2.22-1.7 4-3.8 4-.22 0-.45 0-.67-.05.34-.14.66-.25 1.44-.73.8-.55 1.4-1.46 1.53-2.4.2-1.5-.72-2.4-1.1-2.8.2.4.38.82.47 1.26.14.8 0 1.53-.63 2.1-.6.47-1.2.63-1.8.68-.72.04-1.46.04-2.65-.32-.24-.53-.37-1.12-.37-1.7 0-.9.3-1.74.8-2.44.2.8.34 1.3.63 1.9.3.67.76 1.23 1.5 1.58.5.2 1.22.2 1.7-.4.35-.45.4-.94.4-1.44.02-.4-.05-.83-.14-1.23-.04-.05-.13-.05-.18-.05.05.65.08 1.4-.23 2.03-.14.24-.23.4-.42.52-.27.18-.64.22-.97-.08-.28-.27-.47-.86-.5-1.34-.02-.63.1-1.27.3-1.87.12-.4.3-.8.53-1.16.13-.02.25-.03.38-.03zm-32.9 1.7h3.12c1.6 0 2.38 1.23 2.4 2.36 0 1.65-.9 2.46-3 2.46h-2.5zm-18.9.03h4.3c.94-.07 1.1 1.28.4 1.53-.1.03-.25.04-.4.04H10.1v-.62c-.05-.58.34-1 .93-.95zm30.25 3.1h5.22v.62c.05.6-.34 1-.93.96h-4.3c-.96.07-1.1-1.28-.42-1.54.1-.02.25-.04.4-.04zM43.9 3.27c-.05 0-.1.05-.1.12v.78h-1.14c-.63-.04-1.13.48-1.12 1.23 0 .4.25 1.23 1.12 1.23H44c.27 0 .47-.2.47-.42V3.4c0-.1-.04-.13-.13-.13zm6.48 0c-.05 0-.1.05-.1.12v.78h-1.15C48.5 4.13 48 4.65 48 5.4c0 .4.26 1.22 1.13 1.22h1.33c.28 0 .48-.18.48-.4V3.38c0-.1-.04-.13-.12-.13zm-9.86 0c-.06 0-.1.06-.1.12v.4c0 .06.04.12.1.12h.46c.06 0 .1-.06.1-.12v-.4c0-.07-.04-.12-.1-.12zm0 .87c-.06 0-.1.05-.1.12v2.26c0 .06.04.1.1.1H41c.05 0 .1-.04.1-.1V4.26c0-.07-.05-.12-.1-.12zm-10 .06c-.1 0-.1.03-.1.12v2.12c0 .14.03.2.16.2h.38c.13 0 .13-.07.13-.17V4.74h.4c.2 0 .38.1.42.4v1.3c0 .14.03.2.16.2H32.46c.12 0 .13-.07.13-.17V4.73h.4c.22 0 .42.12.42.5v1.2c0 .15.04.2.2.2h.3c.14 0 .16-.06.16-.18v-1.5c0-.15 0-.27-.04-.37-.02-.1-.07-.17-.12-.23-.06-.06-.13-.1-.22-.12-.1-.03-.45-.04-.58-.04H31.62zm4.16 0c-.14 0-.16.06-.16.18v1.5c0 .15.02.27.04.37.03.1.07.17.13.23.04.06.12.1.2.12.1.02.45.04.58.04h1.44c.1 0 .1-.04.1-.13V4.4c0-.15-.02-.2-.16-.2h-.38c-.12 0-.12.06-.12.16V6.1h-.77c-.22 0-.42-.12-.42-.5V4.4c0-.15-.04-.2-.2-.2zm2.9 0c-.1 0-.1.02-.1.1v2.14c0 .13.02.2.15.2H38c.14 0 .14-.08.14-.18V4.73h.76c.2 0 .4.12.4.5v1.2c0 .14.05.2.2.2h.32c.14 0 .15-.06.15-.2v-1.5c0-.13 0-.26-.04-.35-.02-.1-.07-.18-.12-.24-.05-.05-.12-.1-.2-.12-.1-.02-.46-.03-.6-.03zm-9.77 0c-.27 0-.5.26-.5.6v1.26c0 .32.24.58.52.58h1.65c.28 0 .5-.26.5-.6V4.8c0-.32-.22-.58-.5-.58zm-2.9 0c-.1 0-.2.02-.3.05-.07.03-.13.07-.18.13-.06.06-.1.14-.12.24-.02.1-.03.23-.03.37v.86c0 .14 0 .27.03.37.03.1.07.18.12.24.05.06.1.1.2.13.07.03.17.04.28.04h1.85c.05 0 .12-.06.12-.14v-.26c0-.08-.07-.15-.15-.15h-1.55c-.3 0-.32-.18-.3-.36v-.62c-.03-.2 0-.38.3-.36h1.55c.08 0 .15-.08.15-.16v-.25c0-.1-.07-.14-.13-.14zm20.4 0c-.05 0-.12.04-.12.12v.23c0 .07.07.14.15.14h1.34c.3-.03.32.28.3.45h-1.43c-.46 0-.63.24-.63.8 0 .5.22.68.64.68h1.4c.4 0 .63-.3.63-.75v-.75c0-.13 0-.47-.04-.56-.02-.1-.06-.17-.1-.22-.06-.06-.13-.1-.2-.12-.1-.03-.18-.04-.3-.04zm-2 .5c.27 0 .5.02.5.02v1.36h-.7c-.1 0-.2 0-.25-.02-.67 0-.7-.5-.66-.7 0-.5.47-.64.67-.64h.44zm6.48 0c.26 0 .5.02.5.02v1.35h-.96c-.66-.02-.7-.52-.65-.72 0-.5.48-.64.67-.63l.44-.02zm-21.65.04h1.02c.14 0 .25.12.25.28v.8c0 .16-.1.28-.24.28h-1.03c-.14 0-.25-.12-.25-.28v-.8c0-.16.1-.28.25-.28zm17.52.9h1.32v.25c0 .13-.08.24-.23.23h-1.1c-.23.02-.26-.42-.1-.48h.1z" style="-inkscape-font-specification:'Unispace, Bold';font-variant-ligatures:normal;font-variant-caps:normal;font-variant-numeric:normal;font-feature-settings:normal;text-align:center" font-weight="bold" font-size="14.73" font-family="Unispace" letter-spacing="0" word-spacing="0" text-anchor="middle" stroke-width=".11"/></g></g></svg>